<svg xmlns="http://www.w3.org/2000/svg" xmlns:xlink="http://www.w3.org/1999/xlink" viewBox="0,0,256,256" width="100px" height="100px" fill-rule="nonzero"><g fill="#ffffff" fill-rule="nonzero" stroke="none" stroke-width="1" stroke-linecap="butt" stroke-linejoin="miter" stroke-miterlimit="10" stroke-dasharray="" stroke-dashoffset="0" font-family="none" font-weight="none" font-size="none" text-anchor="none" style="mix-blend-mode: normal"><g transform="scale(5.12,5.12)"><path d="M24.5,12v0c-1.381,0 -2.5,-1.119 -2.5,-2.5v-3c0,-1.381 1.119,-2.5 2.5,-2.5v0c1.381,0 2.5,1.119 2.5,2.5v3c0,1.381 -1.119,2.5 -2.5,2.5zM24.5,47v0c-1.381,0 -2.5,-1.119 -2.5,-2.5v-3c0,-1.381 1.119,-2.5 2.5,-2.5v0c1.381,0 2.5,1.119 2.5,2.5v3c0,1.381 -1.119,2.5 -2.5,2.5zM24.5,36v0c-1.381,0 -2.5,-1.119 -2.5,-2.5v-16c0,-1.381 1.119,-2.5 2.5,-2.5v0c1.381,0 2.5,1.119 2.5,2.5v16c0,1.381 -1.119,2.5 -2.5,2.5zM33.5,12v0c-1.381,0 -2.5,1.119 -2.5,2.5v3c0,1.381 1.119,2.5 2.5,2.5v0c1.381,0 2.5,-1.119 2.5,-2.5v-3c0,-1.381 -1.119,-2.5 -2.5,-2.5zM33.5,23v0c-1.381,0 -2.5,1.119 -2.5,2.5v10c0,1.381 1.119,2.5 2.5,2.5v0c1.381,0 2.5,-1.119 2.5,-2.5v-10c0,-1.381 -1.119,-2.5 -2.5,-2.5zM41.5,21v0c-1.381,0 -2.5,1.119 -2.5,2.5v3c0,1.381 1.119,2.5 2.5,2.5v0c1.381,0 2.5,-1.119 2.5,-2.5v-3c0,-1.381 -1.119,-2.5 -2.5,-2.5zM15.5,38v0c-1.381,0 -2.5,-1.119 -2.5,-2.5v-3c0,-1.381 1.119,-2.5 2.5,-2.5v0c1.381,0 2.5,1.119 2.5,2.5v3c0,1.381 -1.119,2.5 -2.5,2.5zM15.5,27v0c-1.381,0 -2.5,-1.119 -2.5,-2.5v-10c0,-1.381 1.119,-2.5 2.5,-2.5v0c1.381,0 2.5,1.119 2.5,2.5v10c0,1.381 -1.119,2.5 -2.5,2.5zM7.5,21v0c1.381,0 2.5,1.119 2.5,2.5v3c0,1.381 -1.119,2.5 -2.5,2.5v0c-1.381,0 -2.5,-1.119 -2.5,-2.5v-3c0,-1.381 1.119,-2.5 2.5,-2.5z"></path></g></g></svg>